<svg id="Layer_1" xmlns="http://www.w3.org/2000/svg" viewBox="0 0 1000 1000"><style>.st0{fill:#363636}.st1{fill:#fff}.st2{fill:#373737}.st3{fill:#4c4c56}.st4{font-family:&apos;Copperplate-Light&apos;}.st5{font-size:179.5414px}</style><path class="st0" d="M491.2 68.1c177.1-4.2 322.1 133.2 329 307.2 7.2 181.6-132.4 325-303.3 333.8-92.2 4.7-173-25.3-239.6-89.4-63.3-60.8-96.3-136.3-98.2-224-3.8-177 135.1-322.4 312.1-327.6zm215.3 312.6c-3.7-105.8-91.2-201.5-212.5-198.6-110.3 2.6-203.3 93-201.1 211.2C295 504.5 385 595.8 500.2 595.7c115.7 0 210.6-95.6 206.3-215zM548.8 643.5c-.3 4 0 4.3 4.2 3.3 7.7-1.8 15.5-3.5 23.1-5.8 7.2-2.1 14.1-4.8 21.1-7.4 2-.7 3.9-1.8 5.9-2.7-.4-1-.6-1.6-.9-2.2-.3-.7-.7-1.3-.8-1.4-17.5 5.5-34.8 10.8-52.6 16.2zm138.3-75.2c-14.2 12-28.1 23.7-42.2 35.6.5.7 1.4 1.9 2.4 3.3 15.7-10.7 29.8-22.6 43.1-36.4-1.5-1-2.6-1.9-3.3-2.5zm-371.9 3c-11.7-14.7-23-28.8-34.4-43.2-.8.5-2 1.3-3.3 2.2 10.2 16 21.7 30.6 35 43.8 1-1.1 1.8-2 2.7-2.8.1-.2.1-.5 0 0zm133.8-437c-.1-4.1-.2-4.4-4.6-3.2-10.9 2.9-21.8 5.9-32.6 9.3-5.7 1.8-11.2 4.3-17.1 6.6.9 1.8 1.5 3.2 1.8 3.8 17.6-5.5 34.9-10.9 52.5-16.5zm97-4.8l-1.6-.4c-16.6-3.1-33.4-3.9-50.3-3.9-4.5 0-4.8.5-3.7 4.3 18.3 1.3 36.3 2.6 54.8 3.9.2-.7.5-2.2.8-3.9zM241.8 335c-3.9 18.6-5.7 36.9-5.5 55.5 1.8.1 3.2.2 4 .3 1.8-18.4 3.6-36.6 5.4-55.1-.6 0-2.1-.3-3.9-.7zm515.7 107.3c.4-.7.5-.9.6-1.1 3.4-16.8 4.9-33.8 5.3-50.9.1-4.3-.1-4.4-4.2-3.5-1.8 18.2-3.6 36.2-5.4 54.7.7.1 2.2.4 3.7.8zm-17.8 45.3c-8.9 16.4-17.6 32.5-26.4 48.6 1 .6 2.1 1.3 3.4 2.1 10.7-15.5 19.5-31.8 26.7-49.2-1.5-.6-2.9-1.1-3.7-1.5zm-58.4-284.3c12.1 14.7 23.6 28.7 35.2 42.8.7-1 4.8-.7 2.2-4.1-7.1-9.3-14.1-18.6-21.4-27.7-3.9-4.8-8.4-9-12.7-13.6-.9.8-1.5 1.4-2.1 1.8-.6.5-1.2.8-1.2.8zm-37-34.8c-15.9-10.3-32.3-18.9-50-25.6-.6 1.8-1.1 3.2-1.3 3.8 16.6 8.5 32.7 16.8 49.1 25.2.4-.6 1.2-1.8 2.2-3.4zm114.3 171.6c-3.3-18.7-8.7-36.4-16.1-53.5-4.8 1.5-4.6 1.4-3.1 5.7 3.6 10.5 7.1 21 10.4 31.6 1.7 5.5 2.8 11.2 4.2 16.9 1.6-.3 2.8-.5 4.6-.7zM259.4 485c-2.9-9-6-17.6-8.4-26.4-2.5-8.7-4.3-17.7-6.4-26.5-4.5.1-4.8.2-3.8 4.4 2.3 10.3 4.7 20.6 7.5 30.7 1.8 6.5 4.3 12.9 6.6 19.5 1.6-.6 2.9-1.1 4.5-1.7zm183.5 161.1c18.5 4.1 36.7 6.1 55.4 6.2v-4c-18.3-2.1-36.3-4.1-54.8-6.2-.1.8-.3 2.3-.6 4zM283.7 238c-10.9 15.5-19.8 31.6-27 49 1.6.7 2.8 1.3 3.6 1.6 9-16.3 17.8-32.3 26.8-48.5-.7-.4-1.9-1.1-3.4-2.1zm64.6 366c.4.5.5.8.8 1 14.4 10.2 29.9 18.7 46.1 25.7.6.3 2.2-.4 2.7-1.1 1.8-2.5-.2-3.4-2.1-4.2-12.8-5.3-24.7-12-36.3-19.5-2.8-1.8-5.7-3.7-8.6-5.6-1.1 1.4-1.9 2.6-2.6 3.7zm13.1-439.5c-16.2 10.1-30.7 21.3-44.2 34.3 1.2 1.4 2.2 2.4 2.7 3 14.7-11.4 29.1-22.5 43.7-33.8-.6-.8-1.3-2-2.2-3.5z"/><path class="st1" d="M706.5 380.7c4.3 119.4-90.6 214.9-206.2 215-115.3.1-205.3-91.2-207.4-202.4C290.7 275 383.7 184.7 494 182.1c121.3-2.9 208.8 92.8 212.5 198.6zM495.3 186.1c-112.4 3-200.3 94.9-198.2 206.5 2.1 112.5 95.2 203 210.8 198.7 108.5-4.1 199.1-95.4 194.2-211.8-4.5-107-93.7-195.3-206.8-193.4zm43.6 459.2c18-4.7 35.5-9.3 53.3-14 0 .1.4.7.7 1.4.3.6.5 1.2.8 2.2-2 .9-4 1.9-6 2.5-7.1 2.3-14.2 4.7-21.4 6.5-7.7 1.9-15.5 3.4-23.3 4.9-4.3.8-4.5.4-4.1-3.5zM680 575.5c.7.6 1.8 1.5 3.1 2.7-13.8 13.2-28.4 24.6-44.5 34.7-.9-1.4-1.7-2.7-2.2-3.4 14.6-11.4 29-22.6 43.6-34zM308.2 564c.2-.5.2-.2 0 0-.9.8-1.8 1.6-2.9 2.7-12.8-13.7-23.7-28.7-33.3-45.1 1.3-.8 2.6-1.6 3.4-2.1 11 14.8 21.7 29.4 32.8 44.5zm150.7-431.4c-17.8 4.8-35.3 9.5-53.1 14.4-.3-.6-.9-2-1.7-3.9 6-2.1 11.6-4.3 17.4-5.9 10.9-2.9 21.9-5.5 32.9-8 4.5-1 4.6-.8 4.5 3.4zm97.2-1.1c-.4 1.6-.7 3.2-.9 3.8-18.4-2-36.4-4-54.6-6-1-3.8-.6-4.3 3.8-4.1 16.8.6 33.6 2.2 50.1 5.9l1.6.4zM241.8 335c1.8.4 3.3.7 3.9.8-1.8 18.5-3.6 36.6-5.4 55.1-.8-.1-2.2-.2-4-.3-.2-18.7 1.5-37 5.5-55.6zm515.7 107.3c-1.5-.3-3-.6-3.6-.8 1.8-18.4 3.6-36.4 5.4-54.7 4.1-.8 4.3-.8 4.2 3.5-.4 17.1-1.9 34.1-5.3 50.9-.2.2-.3.4-.7 1.1zm-21.8 54.6c.8.4 2.1 1 3.7 1.7-7.9 17.2-17.3 33-28.6 48.1-1.3-.9-2.4-1.6-3.3-2.3 9.3-15.8 18.6-31.5 28.2-47.5zm-47.3-286.4s.6-.3 1.2-.7c.6-.4 1.2-.9 2.1-1.7 4.1 4.7 8.5 9.1 12.1 14 7 9.3 13.6 18.9 20.3 28.5 2.5 3.5-1.5 3-2.3 4-11-14.5-22-28.9-33.4-44.1zm-35.6-36.2c-1.1 1.6-1.9 2.7-2.3 3.3-16.1-9.1-31.8-18-48.1-27.1.2-.6.8-2 1.4-3.7 17.4 7.4 33.5 16.6 49 27.5zm105.8 165.8c-1.8.3-3 .5-4.6.7-1.4-5.7-2.5-11.4-4.2-16.9-3.3-10.6-6.8-21.1-10.4-31.6-1.5-4.3-1.6-4.2 3.1-5.7 7.4 17.1 12.8 34.8 16.1 53.5zM259.4 485c-1.5.6-2.8 1.1-4.5 1.7-2.3-6.7-4.8-13-6.6-19.5-2.8-10.2-5.2-20.4-7.5-30.7-.9-4.2-.6-4.2 3.8-4.4 2.1 8.8 4 17.7 6.4 26.5 2.4 8.8 5.4 17.4 8.4 26.4zm173.5 158.7c.4-1.7.7-3.2.8-3.9 18.3 2.8 36.2 5.5 54.5 8.3 0 .7-.1 2.1-.2 4-18.6-.8-36.8-3.5-55.1-8.4zM289.7 229.8c1.5 1 2.7 1.8 3.3 2.3-9.6 15.8-19 31.5-28.6 47.4-.8-.4-2-1-3.5-1.8 7.8-17.2 17.3-32.9 28.8-47.9zM340 597.9c.8-1.1 1.6-2.2 2.6-3.6 2.9 2 5.7 4 8.4 5.9 11.3 7.9 23 15.2 35.5 20.9 1.9.9 3.9 1.8 2 4.2-.5.7-2.1 1.3-2.7 1-16-7.6-31-16.7-45.1-27.4-.2-.1-.3-.5-.7-1zm30.2-438.6c.9 1.5 1.6 2.7 2 3.5-15 10.7-29.9 21.3-45 32.1-.5-.6-1.4-1.6-2.5-3.1 14-12.4 28.9-23.1 45.5-32.5z"/><path class="st2" d="M495.3 186.1c113.1-2 202.3 86.4 206.8 193.4 4.9 116.4-85.7 207.7-194.2 211.8-115.6 4.3-208.7-86.2-210.8-198.7C295 281 382.9 189.1 495.3 186.1zm-.8 4.7c-111.6 3.5-196 95.8-192.7 203.9 1.7 54.3 22.4 100.6 61.9 137.9 40.5 38.2 89.1 56.3 144.8 54 107.9-4.4 194.1-95.8 189.1-206.8-4.9-108.4-95.4-191.5-203.1-189z"/><path class="st2" d="M533.1 63.6c-1.6.3-3.1.9-4.7.8-16.7-1.2-33.5-1.6-50.3-.5-29.5 2-58.3 7.9-86.2 17.6-25.4 8.9-49.4 20.8-71.8 35.7-26.5 17.6-50.1 38.6-70.5 63.1-15 18-27.9 37.4-38.7 58.3-7.4 14.3-13.8 29-19.1 44.3-6.3 18.2-11 36.8-13.9 55.7-2.6 17.2-4.3 34.6-3.7 52 .3 9.8.1 19.7 1.4 29.4 2.3 16.5 5.2 33.1 8.7 49.4 3.5 16.1 9.3 31.4 15.6 46.6 9 21.6 20.5 41.7 33.9 60.8 15.9 22.7 34.6 42.9 55.8 60.8 19 16 39.5 29.7 61.5 41 20.9 10.6 42.7 18.9 65.4 25 21.4 5.7 43.1 9.1 65.1 10.3 18.5 1.1 37 .4 55.4-1.7 20.4-2.4 40.6-6.3 60-12.8 15-5 29.9-10.8 44.1-17.7 14.7-7.2 29.1-15.3 42.6-24.6 13.4-9.2 26.1-19.6 38-30.7 11.7-10.9 22.8-22.6 32.7-35.1 10.2-12.9 18.9-27.1 27.7-41.1 9.5-15.2 16.9-31.5 22.8-48.4 5.1-14.7 9.2-29.9 12.8-45.1 2.7-11.2 4.1-22.7 5.6-34.1 1-7.3 1-14.7 1.6-22.1.2-2.5-.9-5.5 2-7.4.6-.4.2-2 .4-3.9 1.5 38.9-9.6 106-44.2 164.6-29.8 50.3-69.5 90.7-120.4 119.5-137.2 78-289.7 44-382.9-40.8-53.7-48.9-88.2-109.1-102.3-180.3-14-70.7-5.2-139 25.7-204.1 29.7-62.6 75.1-111.2 135.4-145.1C399 69 463.9 55.6 532.8 62.4l.3 1.2zm292.3 322.5c-2.1-82.6-29.4-154.6-84.2-215.4-54.9-60.8-123.7-95.1-204.7-105.5.5-2.2.8-2.5 3.7-2.1 5.4.8 10.8 1.7 16.2 2.6 18.4 2.9 36.4 7.5 53.7 14.2 15.3 5.9 30.4 12.7 45 20.4 13.5 7.1 26.3 15.6 39.1 24.1 6.5 4.3 12.3 9.8 18.3 14.8 3.7 3.1 7.6 6.1 10.9 9.5 10.5 11 21.1 22 31.1 33.5 12 13.9 22 29.3 31.1 45.2 12.8 22.6 22.8 46.5 29.9 71.6 4.9 17.1 8.6 34.5 10.3 52.3.8 8.4 1.6 16.9 2.2 25.3.2 2.3 0 4.6-.3 6.9-.3.7-1.3 1.4-2.3 2.6z"/><path class="st2" d="M825.4 386.1l-.3 13.2 2.5.3-.1-16.1z"/><text transform="translate(26.286 880.418)" class="st3 st4 st5">OmniKlima</text></svg>