<svg id="Layer_1" xmlns="http://www.w3.org/2000/svg" viewBox="0 0 1000 291.2"><style>.st0{opacity:.7;fill:#ec2526}</style><path d="M1000 155.4c-.5 9.4-.9 18.9-1.7 28.3-1.8 20.6-10.3 29.1-30.9 31.3-10.8 1.2-21.7 2.2-32.4 3.6-2.1.3-4.9 2-5.8 3.9-16.1 32.6-66.1 44.1-94 11.6-.9-1.1-2.2-2.1-2.6-3.4-3.1-9.2-10.1-9.6-18.5-9.5-53 .7-106 .9-159.1 1.2-3.8 0-6.2.8-8.4 4.4-22.9 37.6-77.5 36.1-98.3-2.7-2.2-4.1-4.5-5.4-8.9-5.5-7.1-.2-14.4-.9-21.4-2.4-7.5-1.6-13.7-5.8-17-13-9.4-20.4-12.9-41.9-10.5-64.2 1.4-13.3 9.4-22.6 22.1-26.2 26.2-7.5 52.4-15.6 79.1-20.4 20.2-3.6 36.7-10.8 50.4-26.1 10.3-11.4 22.5-21 33.4-31.9 8.6-8.6 18.9-13 30.7-13.9 25.6-1.8 51.2-4.9 76.8-4.5 28.2.5 56.4 4.1 84.6 6.8 9.3.9 17.1 5.5 23 13 10.3 13.2 20.5 26.6 31.1 39.6 1.6 2 5 3.1 7.8 3.7 13.2 2.8 26.6 4.8 39.8 7.8 20.6 4.7 27 12.4 28.6 33.3.5 5.9 1 11.9 1.3 17.8.2 5.7 0 11.5 0 17.3.4.1.6.1.8.1zm-20.7-2.1c-.8-10.4-1.9-23.1-2.7-35.8-.4-5.6-3.1-8.5-8.5-9.5-15.3-2.9-30.5-6.1-45.9-8.7-7.9-1.3-14-4.6-18.8-11.3-9-12.7-18.3-25.3-28.1-37.5-2.6-3.2-7.1-6.4-11-6.8-27.5-2.8-55.1-6.2-82.7-6.7-23.5-.5-47.1 2.6-70.6 4.1-8 .5-15 2.8-21 8.7-14.6 14.4-29.8 28.3-44.6 42.5-7.2 6.9-15 12.9-24.9 15.2-8.4 2-16.9 3.1-25.3 5.2-25 6.3-50 12.8-74.9 19.4-6.4 1.7-9 6.4-9.3 12.9-.7 15.4 1.9 30.2 7.1 44.7 1.7 4.9 4.8 6.7 9.6 7 8 .4 16 1.1 24 1.6 6.7.4 10.8 3.4 13 10.1 4.9 15 16.4 23.7 30.8 24.3 17.1.8 29-6.2 35.8-21.6 3-6.9 7.5-9.7 15.2-9.7 61.4-.1 122.9-.6 184.3-1.1 8.6-.1 11.7 2 14.8 10 5.1 13.5 17.6 22.2 31.8 22.1 15-.1 27.7-9 33.2-22.3 4-9.6 6.3-11.6 16.7-12.3 13.5-1 26.9-2.9 40.4-3.9 7.1-.5 9.6-4.5 10-10.7.4-9.1.9-18.3 1.6-29.9z"/><path class="st0" d="M706.5 8v262.5H0"/></svg>