<?xml version="1.0" encoding="utf-8"?>
<!-- Generator: Adobe Illustrator 19.2.0, SVG Export Plug-In . SVG Version: 6.00 Build 0)  -->
<svg version="1.1" id="Layer_1" xmlns="http://www.w3.org/2000/svg" xmlns:xlink="http://www.w3.org/1999/xlink" x="0px" y="0px"
	 viewBox="0 0 1000 1000" style="enable-background:new 0 0 1000 1000;" xml:space="preserve">
<style type="text/css">
	.st0{fill:#363636;}
	.st1{fill:#FFFFFF;}
	.st2{fill:#373737;}
	.st3{fill:#4C4C56;}
	.st4{font-family:'Copperplate-Light';}
	.st5{font-size:179.5414px;}
</style>
<path class="st0" d="M491.2,68.1c177.1-4.2,322.1,133.2,329,307.2c7.2,181.6-132.4,325-303.3,333.8c-92.2,4.7-173-25.3-239.6-89.4
	c-63.3-60.8-96.3-136.3-98.2-224C175.3,218.7,314.2,73.3,491.2,68.1z M706.5,380.7c-3.7-105.8-91.2-201.5-212.5-198.6
	c-110.3,2.6-203.3,93-201.1,211.2C295,504.5,385,595.8,500.2,595.7C615.9,595.7,710.8,500.1,706.5,380.7z M548.8,643.5
	c-0.3,4,0,4.3,4.2,3.3c7.7-1.8,15.5-3.5,23.1-5.8c7.2-2.1,14.1-4.8,21.1-7.4c2-0.7,3.9-1.8,5.9-2.7c-0.4-1-0.6-1.6-0.9-2.2
	c-0.3-0.7-0.7-1.3-0.8-1.4C583.9,632.8,566.6,638.1,548.8,643.5z M687.1,568.3c-14.2,12-28.1,23.7-42.2,35.6
	c0.5,0.7,1.4,1.9,2.4,3.3c15.7-10.7,29.8-22.6,43.1-36.4C688.9,569.8,687.8,568.9,687.1,568.3z M315.2,571.3
	c-11.7-14.7-23-28.8-34.4-43.2c-0.8,0.5-2,1.3-3.3,2.2c10.2,16,21.7,30.6,35,43.8C313.5,573,314.3,572.1,315.2,571.3
	C315.3,571.1,315.3,570.8,315.2,571.3z M449,134.3c-0.1-4.1-0.2-4.4-4.6-3.2c-10.9,2.9-21.8,5.9-32.6,9.3
	c-5.7,1.8-11.2,4.3-17.1,6.6c0.9,1.8,1.5,3.2,1.8,3.8C414.1,145.3,431.4,139.9,449,134.3z M546,129.5c-0.8-0.2-1.2-0.3-1.6-0.4
	c-16.6-3.1-33.4-3.9-50.3-3.9c-4.5,0-4.8,0.5-3.7,4.3c18.3,1.3,36.3,2.6,54.8,3.9C545.4,132.7,545.7,131.2,546,129.5z M241.8,335
	c-3.9,18.6-5.7,36.9-5.5,55.5c1.8,0.1,3.2,0.2,4,0.3c1.8-18.4,3.6-36.6,5.4-55.1C245.1,335.7,243.6,335.4,241.8,335z M757.5,442.3
	c0.4-0.7,0.5-0.9,0.6-1.1c3.4-16.8,4.9-33.8,5.3-50.9c0.1-4.3-0.1-4.4-4.2-3.5c-1.8,18.2-3.6,36.2-5.4,54.7
	C754.5,441.6,756,441.9,757.5,442.3z M739.7,487.6c-8.9,16.4-17.6,32.5-26.4,48.6c1,0.6,2.1,1.3,3.4,2.1
	c10.7-15.5,19.5-31.8,26.7-49.2C741.9,488.5,740.5,488,739.7,487.6z M681.3,203.3c12.1,14.7,23.6,28.7,35.2,42.8
	c0.7-1,4.8-0.7,2.2-4.1c-7.1-9.3-14.1-18.6-21.4-27.7c-3.9-4.8-8.4-9-12.7-13.6c-0.9,0.8-1.5,1.4-2.1,1.8
	C681.9,203,681.3,203.3,681.3,203.3z M644.3,168.5c-15.9-10.3-32.3-18.9-50-25.6c-0.6,1.8-1.1,3.2-1.3,3.8
	c16.6,8.5,32.7,16.8,49.1,25.2C642.5,171.3,643.3,170.1,644.3,168.5z M758.6,340.1c-3.3-18.7-8.7-36.4-16.1-53.5
	c-4.8,1.5-4.6,1.4-3.1,5.7c3.6,10.5,7.1,21,10.4,31.6c1.7,5.5,2.8,11.2,4.2,16.9C755.6,340.5,756.8,340.3,758.6,340.1z M259.4,485
	c-2.9-9-6-17.6-8.4-26.4c-2.5-8.7-4.3-17.7-6.4-26.5c-4.5,0.1-4.8,0.2-3.8,4.4c2.3,10.3,4.7,20.6,7.5,30.7
	c1.8,6.5,4.3,12.9,6.6,19.5C256.5,486.1,257.8,485.6,259.4,485z M442.9,646.1c18.5,4.1,36.7,6.1,55.4,6.2c0-1.8,0-3.2,0-4
	c-18.3-2.1-36.3-4.1-54.8-6.2C443.4,642.9,443.2,644.4,442.9,646.1z M283.7,238c-10.9,15.5-19.8,31.6-27,49c1.6,0.7,2.8,1.3,3.6,1.6
	c9-16.3,17.8-32.3,26.8-48.5C286.4,239.7,285.2,239,283.7,238z M348.3,604c0.4,0.5,0.5,0.8,0.8,1c14.4,10.2,29.9,18.7,46.1,25.7
	c0.6,0.3,2.2-0.4,2.7-1.1c1.8-2.5-0.2-3.4-2.1-4.2c-12.8-5.3-24.7-12-36.3-19.5c-2.8-1.8-5.7-3.7-8.6-5.6
	C349.8,601.7,349,602.9,348.3,604z M361.4,164.5c-16.2,10.1-30.7,21.3-44.2,34.3c1.2,1.4,2.2,2.4,2.7,3
	c14.7-11.4,29.1-22.5,43.7-33.8C363,167.2,362.3,166,361.4,164.5z"/>
<path class="st1" d="M706.5,380.7c4.3,119.4-90.6,214.9-206.2,215C385,595.8,295,504.5,292.9,393.3C290.7,275,383.7,184.7,494,182.1
	C615.3,179.2,702.8,274.9,706.5,380.7z M495.3,186.1C382.9,189.1,295,281,297.1,392.6c2.1,112.5,95.2,203,210.8,198.7
	c108.5-4.1,199.1-95.4,194.2-211.8C697.6,272.5,608.4,184.2,495.3,186.1z"/>
<path class="st1" d="M538.9,645.3c18-4.7,35.5-9.3,53.3-14c0,0.1,0.4,0.7,0.7,1.4c0.3,0.6,0.5,1.2,0.8,2.2c-2,0.9-4,1.9-6,2.5
	c-7.1,2.3-14.2,4.7-21.4,6.5c-7.7,1.9-15.5,3.4-23.3,4.9C538.7,649.6,538.5,649.2,538.9,645.3z"/>
<path class="st1" d="M680,575.5c0.7,0.6,1.8,1.5,3.1,2.7c-13.8,13.2-28.4,24.6-44.5,34.7c-0.9-1.4-1.7-2.7-2.2-3.4
	C651,598.1,665.4,586.9,680,575.5z"/>
<path class="st1" d="M308.2,564C308.4,563.5,308.4,563.8,308.2,564c-0.9,0.8-1.8,1.6-2.9,2.7c-12.8-13.7-23.7-28.7-33.3-45.1
	c1.3-0.8,2.6-1.6,3.4-2.1C286.4,534.3,297.1,548.9,308.2,564z"/>
<path class="st1" d="M458.9,132.6c-17.8,4.8-35.3,9.5-53.1,14.4c-0.3-0.6-0.9-2-1.7-3.9c6-2.1,11.6-4.3,17.4-5.9
	c10.9-2.9,21.9-5.5,32.9-8C458.9,128.2,459,128.4,458.9,132.6z"/>
<path class="st1" d="M556.1,131.5c-0.4,1.6-0.7,3.2-0.9,3.8c-18.4-2-36.4-4-54.6-6c-1-3.8-0.6-4.3,3.8-4.1
	c16.8,0.6,33.6,2.2,50.1,5.9C554.9,131.2,555.3,131.3,556.1,131.5z"/>
<path class="st1" d="M241.8,335c1.8,0.4,3.3,0.7,3.9,0.8c-1.8,18.5-3.6,36.6-5.4,55.1c-0.8-0.1-2.2-0.2-4-0.3
	C236.1,371.9,237.8,353.6,241.8,335z"/>
<path class="st1" d="M757.5,442.3c-1.5-0.3-3-0.6-3.6-0.8c1.8-18.4,3.6-36.4,5.4-54.7c4.1-0.8,4.3-0.8,4.2,3.5
	c-0.4,17.1-1.9,34.1-5.3,50.9C758,441.4,757.9,441.6,757.5,442.3z"/>
<path class="st1" d="M735.7,496.9c0.8,0.4,2.1,1,3.7,1.7c-7.9,17.2-17.3,33-28.6,48.1c-1.3-0.9-2.4-1.6-3.3-2.3
	C716.8,528.6,726.1,512.9,735.7,496.9z"/>
<path class="st1" d="M688.4,210.5c0,0,0.6-0.3,1.2-0.7c0.6-0.4,1.2-0.9,2.1-1.7c4.1,4.7,8.5,9.1,12.1,14c7,9.3,13.6,18.9,20.3,28.5
	c2.5,3.5-1.5,3-2.3,4C710.8,240.1,699.8,225.7,688.4,210.5z"/>
<path class="st1" d="M652.8,174.3c-1.1,1.6-1.9,2.7-2.3,3.3c-16.1-9.1-31.8-18-48.1-27.1c0.2-0.6,0.8-2,1.4-3.7
	C621.2,154.2,637.3,163.4,652.8,174.3z"/>
<path class="st1" d="M758.6,340.1c-1.8,0.3-3,0.5-4.6,0.7c-1.4-5.7-2.5-11.4-4.2-16.9c-3.3-10.6-6.8-21.1-10.4-31.6
	c-1.5-4.3-1.6-4.2,3.1-5.7C749.9,303.7,755.3,321.4,758.6,340.1z"/>
<path class="st1" d="M259.4,485c-1.5,0.6-2.8,1.1-4.5,1.7c-2.3-6.7-4.8-13-6.6-19.5c-2.8-10.2-5.2-20.4-7.5-30.7
	c-0.9-4.2-0.6-4.2,3.8-4.4c2.1,8.8,4,17.7,6.4,26.5C253.4,467.4,256.4,476,259.4,485z"/>
<path class="st1" d="M432.9,643.7c0.4-1.7,0.7-3.2,0.8-3.9c18.3,2.8,36.2,5.5,54.5,8.3c0,0.7-0.1,2.1-0.2,4
	C469.4,651.3,451.2,648.6,432.9,643.7z"/>
<path class="st1" d="M289.7,229.8c1.5,1,2.7,1.8,3.3,2.3c-9.6,15.8-19,31.5-28.6,47.4c-0.8-0.4-2-1-3.5-1.8
	C268.7,260.5,278.2,244.8,289.7,229.8z"/>
<path class="st1" d="M340,597.9c0.8-1.1,1.6-2.2,2.6-3.6c2.9,2,5.7,4,8.4,5.9c11.3,7.9,23,15.2,35.5,20.9c1.9,0.9,3.9,1.8,2,4.2
	c-0.5,0.7-2.1,1.3-2.7,1c-16-7.6-31-16.7-45.1-27.4C340.5,598.8,340.4,598.4,340,597.9z"/>
<path class="st1" d="M370.2,159.3c0.9,1.5,1.6,2.7,2,3.5c-15,10.7-29.9,21.3-45,32.1c-0.5-0.6-1.4-1.6-2.5-3.1
	C338.7,179.4,353.6,168.7,370.2,159.3z"/>
<g>
	<path class="st2" d="M495.3,186.1c113.1-2,202.3,86.4,206.8,193.4c4.9,116.4-85.7,207.7-194.2,211.8
		c-115.6,4.3-208.7-86.2-210.8-198.7C295,281,382.9,189.1,495.3,186.1z M494.5,190.8c-111.6,3.5-196,95.8-192.7,203.9
		c1.7,54.3,22.4,100.6,61.9,137.9c40.5,38.2,89.1,56.3,144.8,54c107.9-4.4,194.1-95.8,189.1-206.8
		C692.7,271.4,602.2,188.3,494.5,190.8z"/>
	<g>
		<g>
			<path class="st2" d="M533.1,63.6c-1.6,0.3-3.1,0.9-4.7,0.8c-16.7-1.2-33.5-1.6-50.3-0.5c-29.5,2-58.3,7.9-86.2,17.6
				c-25.4,8.9-49.4,20.8-71.8,35.7c-26.5,17.6-50.1,38.6-70.5,63.1c-15,18-27.9,37.4-38.7,58.3c-7.4,14.3-13.8,29-19.1,44.3
				c-6.3,18.2-11,36.8-13.9,55.7c-2.6,17.2-4.3,34.6-3.7,52c0.3,9.8,0.1,19.7,1.4,29.4c2.3,16.5,5.2,33.1,8.7,49.4
				c3.5,16.1,9.3,31.4,15.6,46.6c9,21.6,20.5,41.7,33.9,60.8c15.9,22.7,34.6,42.9,55.8,60.8c19,16,39.5,29.7,61.5,41
				c20.9,10.6,42.7,18.9,65.4,25c21.4,5.7,43.1,9.1,65.1,10.3c18.5,1.1,37,0.4,55.4-1.7c20.4-2.4,40.6-6.3,60-12.8
				c15-5,29.9-10.8,44.1-17.7c14.7-7.2,29.1-15.3,42.6-24.6c13.4-9.2,26.1-19.6,38-30.7c11.7-10.9,22.8-22.6,32.7-35.1
				c10.2-12.9,18.9-27.1,27.7-41.1c9.5-15.2,16.9-31.5,22.8-48.4c5.1-14.7,9.2-29.9,12.8-45.1c2.7-11.2,4.1-22.7,5.6-34.1
				c1-7.3,1-14.7,1.6-22.1c0.2-2.5-0.9-5.5,2-7.4c0.6-0.4,0.2-2,0.4-3.9c1.5,38.9-9.6,106-44.2,164.6
				c-29.8,50.3-69.5,90.7-120.4,119.5c-137.2,78-289.7,44-382.9-40.8c-53.7-48.9-88.2-109.1-102.3-180.3
				c-14-70.7-5.2-139,25.7-204.1c29.7-62.6,75.1-111.2,135.4-145.1C399,69,463.9,55.6,532.8,62.4C532.9,62.8,533,63.2,533.1,63.6z"
				/>
			<path class="st2" d="M825.4,386.1c-2.1-82.6-29.4-154.6-84.2-215.4c-54.9-60.8-123.7-95.1-204.7-105.5c0.5-2.2,0.8-2.5,3.7-2.1
				c5.4,0.8,10.8,1.7,16.2,2.6c18.4,2.9,36.4,7.5,53.7,14.2c15.3,5.9,30.4,12.7,45,20.4c13.5,7.1,26.3,15.6,39.1,24.1
				c6.5,4.3,12.3,9.8,18.3,14.8c3.7,3.1,7.6,6.1,10.9,9.5c10.5,11,21.1,22,31.1,33.5c12,13.9,22,29.3,31.1,45.2
				c12.8,22.6,22.8,46.5,29.9,71.6c4.9,17.1,8.6,34.5,10.3,52.3c0.8,8.4,1.6,16.9,2.2,25.3c0.2,2.3,0,4.6-0.3,6.9
				C827.4,384.2,826.4,384.9,825.4,386.1z"/>
		</g>
		<polygon class="st2" points="825.4,386.1 825.1,399.3 827.6,399.6 827.5,383.5 		"/>
	</g>
</g>
<text transform="matrix(1 0 0 1 26.2856 880.418)" class="st3 st4 st5">OmniKlima</text>
</svg>
