<?xml version="1.0" encoding="utf-8"?>
<!-- Generator: Adobe Illustrator 19.2.0, SVG Export Plug-In . SVG Version: 6.00 Build 0)  -->
<svg version="1.1" id="Layer_1" xmlns="http://www.w3.org/2000/svg" xmlns:xlink="http://www.w3.org/1999/xlink" x="0px" y="0px"
	 viewBox="0 0 1000 291.2" style="enable-background:new 0 0 1000 291.2;" xml:space="preserve">
<style type="text/css">
	.st0{opacity:0.7;fill:#EC2526;}
</style>
<g>
	<path d="M1000,155.4c-0.5,9.4-0.9,18.9-1.7,28.3c-1.8,20.6-10.3,29.1-30.9,31.3c-10.8,1.2-21.7,2.2-32.4,3.6
		c-2.1,0.3-4.9,2-5.8,3.9c-16.1,32.6-66.1,44.1-94,11.6c-0.9-1.1-2.2-2.1-2.6-3.4c-3.1-9.2-10.1-9.6-18.5-9.5
		c-53,0.7-106,0.9-159.1,1.2c-3.8,0-6.2,0.8-8.4,4.4c-22.9,37.6-77.5,36.1-98.3-2.7c-2.2-4.1-4.5-5.4-8.9-5.5
		c-7.1-0.2-14.4-0.9-21.4-2.4c-7.5-1.6-13.7-5.8-17-13c-9.4-20.4-12.9-41.9-10.5-64.2c1.4-13.3,9.4-22.6,22.1-26.2
		c26.2-7.5,52.4-15.6,79.1-20.4c20.2-3.6,36.7-10.8,50.4-26.1c10.3-11.4,22.5-21,33.4-31.9c8.6-8.6,18.9-13,30.7-13.9
		c25.6-1.8,51.2-4.9,76.8-4.5c28.2,0.5,56.4,4.1,84.6,6.8c9.3,0.9,17.1,5.5,23,13c10.3,13.2,20.5,26.6,31.1,39.6
		c1.6,2,5,3.1,7.8,3.7c13.2,2.8,26.6,4.8,39.8,7.8c20.6,4.7,27,12.4,28.6,33.3c0.5,5.9,1,11.9,1.3,17.8c0.2,5.7,0,11.5,0,17.3
		C999.6,155.4,999.8,155.4,1000,155.4z M979.3,153.3c-0.8-10.4-1.9-23.1-2.7-35.8c-0.4-5.6-3.1-8.5-8.5-9.5
		c-15.3-2.9-30.5-6.1-45.9-8.7c-7.9-1.3-14-4.6-18.8-11.3c-9-12.7-18.3-25.3-28.1-37.5c-2.6-3.2-7.1-6.4-11-6.8
		c-27.5-2.8-55.1-6.2-82.7-6.7c-23.5-0.5-47.1,2.6-70.6,4.1c-8,0.5-15,2.8-21,8.7c-14.6,14.4-29.8,28.3-44.6,42.5
		c-7.2,6.9-15,12.9-24.9,15.2c-8.4,2-16.9,3.1-25.3,5.2c-25,6.3-50,12.8-74.9,19.4c-6.4,1.7-9,6.4-9.3,12.9
		c-0.7,15.4,1.9,30.2,7.1,44.7c1.7,4.9,4.8,6.7,9.6,7c8,0.4,16,1.1,24,1.6c6.7,0.4,10.8,3.4,13,10.1c4.9,15,16.4,23.7,30.8,24.3
		c17.1,0.8,29-6.2,35.8-21.6c3-6.9,7.5-9.7,15.2-9.7c61.4-0.1,122.9-0.6,184.3-1.1c8.6-0.1,11.7,2,14.8,10
		c5.1,13.5,17.6,22.2,31.8,22.1c15-0.1,27.7-9,33.2-22.3c4-9.6,6.3-11.6,16.7-12.3c13.5-1,26.9-2.9,40.4-3.9
		c7.1-0.5,9.6-4.5,10-10.7C978.1,174.1,978.6,164.9,979.3,153.3z"/>
</g>
<polyline class="st0" points="706.5,8 706.5,270.5 0,270.5 "/>
</svg>
